<svg width="414" height="138" viewBox="0 0 414 138" fill="none" xmlns="http://www.w3.org/2000/svg">
<g opacity="0.2">
<path d="M0 54.1309V138H414.5V110.687C414.5 98.0917 399.165 91.9026 390.422 100.97L382.06 109.642C377.566 114.302 370.186 114.558 365.381 110.22L330.952 79.1423C322.68 71.6757 310.951 69.4092 300.493 73.2564L228.07 99.8981C215.511 104.518 201.417 101.573 191.759 92.3092L139.267 41.9597C126.983 30.1778 109.466 25.614 92.995 29.9048L0 54.1309Z" fill="#388125" fill-opacity="0.4"/>
<path d="M0.5 44.6618V138H414.5V97.7866C414.5 86.2895 401.409 79.6936 392.169 86.5353L357.085 112.513C352.408 115.977 345.92 115.585 341.694 111.584L287.886 60.6466C277.946 51.2377 262.899 49.7484 251.308 57.0265L198.637 90.0998C185.508 98.3439 168.519 96.9686 156.887 86.72L88.7664 26.7017C71.1665 11.1952 45.0457 10.3365 26.4655 24.6538L0.5 44.6618Z" fill="#388125"/>
<path d="M4 13.5L16 0L28.5 13.5H22.5L31 24.5H1L10 13.5H4Z" fill="#388125"/>
<path d="M16 16.5V36.5" stroke="#490000" stroke-width="3"/>
<path d="M180.5 67.75L194.5 52L209.083 67.75H202.083L212 80.5833H177L187.5 67.75H180.5Z" fill="#388125"/>
<path d="M194.5 71.25V94.5833" stroke="#490000" stroke-width="3"/>
<path d="M402.678 76.6078L402 80H405.512C406.395 80 407.174 79.4207 407.428 78.5747L407.728 77.5747C408.113 76.2915 407.152 75 405.812 75H404.64C403.686 75 402.865 75.6729 402.678 76.6078Z" fill="#0C8A19"/>
<path d="M399 89V82M399 69V82M399 82L402 80M402 80L402.678 76.6078C402.865 75.6729 403.686 75 404.64 75H405.812C407.152 75 408.113 76.2915 407.728 77.5747L407.428 78.5747C407.174 79.4207 406.395 80 405.512 80H402Z" stroke="#0C8A19"/>
<path d="M402.664 71.1982L399.514 69.3087C399.198 69.1187 398.802 69.1187 398.486 69.3087L395.103 71.3383C394.544 71.6739 393.818 71.3929 393.63 70.7682L392.826 68.0877C392.653 67.5106 392.013 67.2165 391.462 67.4612L389.766 68.2153C389.024 68.5447 388.22 67.9008 388.379 67.1053L388.782 65.0913C388.898 64.5084 388.484 63.9531 387.892 63.8992L385.626 63.6933C384.782 63.6165 384.41 62.5898 385.01 61.9903L386.637 60.3625C387.084 59.9163 387.01 59.1734 386.485 58.8234L384.512 57.5079C383.856 57.0707 383.94 56.0821 384.66 55.762L386.353 55.0097C386.94 54.7488 387.132 54.0099 386.747 53.4959L385.7 52.1C385.206 51.4408 385.676 50.5 386.5 50.5H388.113C388.795 50.5 389.277 49.8313 389.061 49.1838L388.263 46.7903C387.982 45.9451 388.862 45.1812 389.659 45.5797L391.329 46.4145C391.919 46.7094 392.627 46.3627 392.757 45.7162L393.106 43.9692C393.268 43.1597 394.286 42.8839 394.834 43.5009L396.701 45.6015C397.117 46.0688 397.854 46.0446 398.238 45.5511L399.93 43.3762C400.404 42.7665 401.361 42.9016 401.647 43.6187L402.578 45.9459C402.802 46.5052 403.466 46.7412 403.992 46.4486L406.014 45.3254C406.681 44.9551 407.5 45.437 407.5 46.1995V48.5C407.5 49.0523 407.948 49.5 408.5 49.5H410.8C411.563 49.5 412.045 50.3191 411.675 50.9856L410.461 53.1697C410.203 53.635 410.354 54.2213 410.805 54.5034L412.763 55.727C413.359 56.0993 413.395 56.9536 412.833 57.375L410.735 58.9489C410.319 59.2605 410.212 59.8384 410.487 60.2789L411.657 62.1517C412.048 62.7763 411.652 63.5942 410.92 63.6756L409.192 63.8676C408.572 63.9365 408.165 64.5508 408.345 65.1488L408.966 67.2212C409.195 67.984 408.484 68.6952 407.721 68.4664L405.649 67.8446C405.051 67.6652 404.436 68.0716 404.368 68.692L404.172 70.4512C404.092 71.1754 403.289 71.5731 402.664 71.1982Z" fill="#FFE600" stroke="#8B9609" stroke-width="0.5"/>
<circle cx="398.5" cy="57.5" r="10.5" fill="#723D00"/>
</g>
</svg>
