<svg width="414" height="83" viewBox="0 0 414 83" fill="none" xmlns="http://www.w3.org/2000/svg">
<path d="M81.1452 24.3764L0 63.5V83H413L385.069 66.2412C382.031 64.4187 378.812 62.9176 375.464 61.7623L311.062 39.5418C300.616 35.9376 289.304 35.6886 278.71 38.8297L215.787 57.4852C202.911 61.3028 189.009 59.3024 177.732 52.0091L140.763 28.1013C122.9 16.5488 100.308 15.1373 81.1452 24.3764Z" fill="#72A082"/>
<path d="M43.7208 14.8977L0 35.5V83H414V57.5L370.337 66.5965C359.722 68.8078 348.68 67.579 338.811 63.0883L282.682 37.5464C271.266 32.3512 258.376 31.3734 246.306 34.7871L185.371 52.0214C173.022 55.5139 159.776 53.6894 148.832 46.9885L101.575 18.0548C84.0529 7.32632 62.3067 6.13964 43.7208 14.8977Z" fill="#2B6852"/>
<path d="M149.5 34.75L163.5 19L178.083 34.75H171.083L181 47.5833H146L156.5 34.75H149.5Z" fill="#388125"/>
<path d="M163.5 38.25V61.5833" stroke="#490000" stroke-width="3"/>
<path d="M354.5 48.75L368.5 33L383.083 48.75H376.083L386 61.5833H351L361.5 48.75H354.5Z" fill="#388125"/>
<path d="M368.5 52.25V75.5833" stroke="#490000" stroke-width="3"/>
</svg>
