<svg width="264" height="66" viewBox="0 0 264 66" fill="none" xmlns="http://www.w3.org/2000/svg">
<path d="M61.6175 27H4.43947C2.71603 27 1.79957 24.9657 2.94148 23.6749L9.58741 16.1621C10.6554 14.9548 12.4866 14.8072 13.7341 15.8279L22.5 23L31.6078 4.78444C32.6555 2.68899 35.5934 2.54941 36.8351 4.53609L46.5 20L51.339 11.6124C52.5071 9.58762 55.4397 9.61758 56.5662 11.6658L63.3699 24.0362C64.103 25.3691 63.1387 27 61.6175 27Z" fill="white"/>
<path d="M204 66H264L255.3 56.1345C254.231 54.9229 252.395 54.775 251.146 55.7998L243.231 62.2963L237.403 50.6042C235.309 46.4044 229.422 46.1251 226.94 50.1079L221.077 59.5185L219.48 56.7419C217.146 52.6831 211.269 52.743 209.018 56.8486L204 66Z" fill="white"/>
</svg>
